<svg viewBox="0 0 512 512" xmlns="http://www.w3.org/2000/svg" width="512" height="512">
  <path d="m256 69.818c-102.616 0-186.182 83.566-186.182 186.182s83.566 186.182 186.182 186.182 186.182-83.566 186.182-186.182-83.566-186.182-186.182-186.182zm0 23.273c89.636 0 162.909 73.273 162.909 162.909s-73.273 162.909-162.909 162.909-162.909-73.273-162.909-162.909 73.273-162.909 162.909-162.909zm-35.455 46.909a11.364 11.364 0 0 0 -9.09 5.057l-45.455 68.182a11.364 11.364 0 1 0 18.909 12.455l24.636-36.818v132.393a11.364 11.364 0 1 0 22.727 0v-170.909a11.364 11.364 0 0 0 -11.727-11.364zm68.182 34.091a11.364 11.364 0 0 0 -11.182 11.545v170.909a11.364 11.364 0 0 0 20.545 6.318l45.455-68.182a11.364 11.364 0 1 0 -18.909-12.455l-24.636 36.818v-132.393a11.364 11.364 0 0 0 -11.273-11.545z" fill="black"/>
</svg>
